<svg width="46" height="45" viewBox="0 0 46 45" fill="none" xmlns="http://www.w3.org/2000/svg">
<g filter="url(#filter0_d)">
<rect x="8" y="8" width="25.3661" height="25" rx="5" fill="#C8B7CE"/>
</g>
<path d="M30.2968 13.0282C28.9698 11.7203 27.2055 11 25.3287 11C23.6002 11 21.967 11.6111 20.683 12.7294C19.399 11.6111 17.7658 11 16.0373 11C14.1605 11 12.3962 11.7203 11.0691 13.0282C8.66856 15.3941 8.37179 19.0601 10.1784 21.7477C10.1845 21.7574 10.191 21.7668 10.1978 21.776C10.4485 22.1449 10.7387 22.4954 11.0691 22.8211L18.6662 30.3085C19.203 30.8376 19.9193 31.129 20.683 31.129C21.4466 31.129 22.1629 30.8376 22.6997 30.3085L30.2968 22.8211C33.0362 20.1211 33.0362 15.7281 30.2968 13.0282ZM29.6521 22.1855L22.0549 29.673C21.6904 30.0323 21.2032 30.2302 20.683 30.2302C20.1628 30.2302 19.6756 30.0323 19.311 29.673L11.7139 22.1855C11.6391 22.1117 11.5666 22.0365 11.4964 21.9599H13.4007C13.5842 21.9599 13.7499 21.8515 13.821 21.6848L15.2454 18.3461L17.2214 22.9778C17.2925 23.1445 17.4581 23.253 17.6417 23.253C17.8252 23.253 17.9908 23.1445 18.062 22.9778L19.4383 19.7518L20.2375 21.6804C20.3075 21.8494 20.4744 21.9599 20.6596 21.9599H23.601C23.8528 21.9599 24.0569 21.7587 24.0569 21.5105C24.0569 21.2624 23.8528 21.0612 23.601 21.0612H20.9659L19.8666 18.4082C19.7969 18.2399 19.6312 18.1296 19.4468 18.1287C19.2634 18.1273 19.0956 18.2363 19.0242 18.4039L17.6417 21.6443L15.6657 17.0126C15.5946 16.8459 15.429 16.7374 15.2454 16.7374C15.0619 16.7374 14.8963 16.8459 14.8251 17.0126L13.0979 21.0612H10.8164C9.38206 18.7422 9.68093 15.6672 11.7138 13.6636C12.8686 12.5255 14.4041 11.8987 16.0372 11.8987C17.6703 11.8987 19.2058 12.5255 20.3605 13.6636C20.4461 13.748 20.562 13.7953 20.6829 13.7953C20.8038 13.7953 20.9198 13.7479 21.0053 13.6636C22.1601 12.5255 23.6955 11.8987 25.3286 11.8987C26.9617 11.8987 28.4972 12.5255 29.6519 13.6636C32.0359 16.0131 32.0359 19.8361 29.6521 22.1855Z" fill="#30279F"/>
<path d="M29.456 14.4461C29.3649 14.3413 29.2683 14.2384 29.1686 14.1402C28.5015 13.4828 27.6707 13.0064 26.7658 12.7624C26.5229 12.697 26.2722 12.8378 26.2057 13.0773C26.1393 13.3167 26.2823 13.5638 26.5252 13.6293C27.2775 13.832 27.9686 14.2285 28.5239 14.7757C28.607 14.8577 28.6877 14.9434 28.7636 15.0308C28.8538 15.1345 28.9815 15.1878 29.11 15.1878C29.215 15.1878 29.3205 15.1522 29.4065 15.0796C29.5976 14.9182 29.6198 14.6345 29.456 14.4461Z" fill="#30279F"/>
<path d="M29.8929 16.3015C30.1448 16.3015 30.3489 16.1004 30.3489 15.8522C30.3489 15.604 30.1448 15.4028 29.8929 15.4028C29.6411 15.4028 29.437 15.604 29.437 15.8522C29.437 16.1004 29.6411 16.3015 29.8929 16.3015Z" fill="#30279F"/>
<defs>
<filter id="filter0_d" x="0" y="0" width="45.3661" height="45" filterUnits="userSpaceOnUse" color-interpolation-filters="sRGB">
<feFlood flood-opacity="0" result="BackgroundImageFix"/>
<feColorMatrix in="SourceAlpha" type="matrix" values="0 0 0 0 0 0 0 0 0 0 0 0 0 0 0 0 0 0 127 0"/>
<feOffset dx="2" dy="2"/>
<feGaussianBlur stdDeviation="5"/>
<feColorMatrix type="matrix" values="0 0 0 0 0 0 0 0 0 0 0 0 0 0 0 0 0 0 0.25 0"/>
<feBlend mode="normal" in2="BackgroundImageFix" result="effect1_dropShadow"/>
<feBlend mode="normal" in="SourceGraphic" in2="effect1_dropShadow" result="shape"/>
</filter>
</defs>
</svg>
