<svg width="46" height="45" viewBox="0 0 46 45" fill="none" xmlns="http://www.w3.org/2000/svg">
<g filter="url(#filter0_d)">
<rect x="8" y="8" width="25.3661" height="25" rx="5" fill="#323761"/>
</g>
<path d="M29.2609 26.875V17.4218C29.2609 15.4472 28.3992 13.5855 26.8346 12.1798C25.27 10.7741 23.1979 10 21 10C19.444 10 17.925 10.3956 16.6073 11.1441C16.4043 11.2594 16.3438 11.5007 16.4721 11.683C16.6004 11.8653 16.869 11.9198 17.072 11.8044C18.2505 11.1351 19.6088 10.7812 21 10.7812C25.0756 10.7812 28.3913 13.7602 28.3913 17.4218V26.875H13.6087V17.4218C13.6087 16.1717 14.0025 14.9513 14.7476 13.8927C14.8759 13.7104 14.8154 13.4691 14.6125 13.3538C14.4094 13.2384 14.1409 13.2928 14.0126 13.4751C13.1795 14.659 12.7391 16.0237 12.7391 17.4218V26.875C11.7802 26.875 11 27.5759 11 28.4375V29.6094C11 29.8251 11.1947 30 11.4348 30H30.5652C30.8053 30 31 29.8251 31 29.6094V28.4375C31 27.5759 30.2198 26.875 29.2609 26.875ZM30.1304 29.2188H11.8696V28.4375C11.8696 28.0067 12.2597 27.6562 12.7391 27.6562H29.2609C29.7403 27.6562 30.1304 28.0067 30.1304 28.4375V29.2188Z" fill="#71279F"/>
<path d="M17.0879 24.1406V25.7031C17.0879 25.9188 17.2826 26.0938 17.5227 26.0938H24.4792C24.7193 26.0938 24.914 25.9188 24.914 25.7031V24.1406C24.914 23.9249 24.7193 23.75 24.4792 23.75H17.5227C17.2826 23.75 17.0879 23.9249 17.0879 24.1406ZM17.9575 24.5312H24.0444V25.3125H17.9575V24.5312Z" fill="#71279F"/>
<path d="M20.1318 22.5781C20.1318 22.7938 20.3265 22.9688 20.5666 22.9688H23.1752C23.4152 22.9688 23.6099 22.7938 23.6099 22.5781C23.6099 22.3624 23.4152 22.1875 23.1752 22.1875H20.5666C20.3265 22.1875 20.1318 22.3624 20.1318 22.5781Z" fill="#71279F"/>
<path d="M19.2623 22.5781C19.2623 22.3624 19.0676 22.1875 18.8275 22.1875H18.8272C18.5871 22.1875 18.3926 22.3624 18.3926 22.5781C18.3926 22.7938 18.5874 22.9688 18.8275 22.9688C19.0677 22.9688 19.2623 22.7938 19.2623 22.5781Z" fill="#71279F"/>
<path d="M15.467 12.8406C15.5784 12.8406 15.6897 12.8025 15.7746 12.7262C15.9444 12.5736 15.9444 12.3263 15.7746 12.1737C15.6048 12.0212 15.3296 12.0212 15.1597 12.1737L15.1595 12.1739C14.9897 12.3264 14.9898 12.5737 15.1596 12.7262C15.2445 12.8025 15.3558 12.8406 15.467 12.8406Z" fill="#71279F"/>
<path d="M19.6683 17.3263C19.6683 16.5794 18.9919 15.9717 18.1606 15.9717H17.0876C16.8475 15.9717 16.6528 16.1466 16.6528 16.3623V19.6094C16.6528 19.8251 16.8475 20 17.0876 20C17.3277 20 17.5224 19.8251 17.5224 19.6094V18.6809H17.9096L18.6318 19.8047C18.7123 19.93 18.8584 20.0001 19.0087 20.0001C19.0825 20.0001 19.1572 19.9832 19.2257 19.9477C19.4336 19.8398 19.5049 19.6009 19.3848 19.4141L18.8244 18.5421C19.3238 18.3211 19.6683 17.8593 19.6683 17.3263ZM17.5224 16.7529H18.1606C18.5125 16.7529 18.7988 17.0101 18.7988 17.3263C18.7988 17.6425 18.5125 17.8996 18.1606 17.8996H17.5224V16.7529Z" fill="#71279F"/>
<path d="M21.0012 20C21.2413 20 21.436 19.8251 21.436 19.6094V16.3623C21.436 16.1466 21.2413 15.9717 21.0012 15.9717C20.7611 15.9717 20.5664 16.1466 20.5664 16.3623V19.6094C20.5664 19.8251 20.7611 20 21.0012 20Z" fill="#71279F"/>
<path d="M23.8412 15.9714H22.7683C22.5282 15.9714 22.3335 16.1464 22.3335 16.3621V19.6091C22.3335 19.8248 22.5282 19.9998 22.7683 19.9998C23.0084 19.9998 23.2031 19.8248 23.2031 19.6091V18.6806H23.8412C24.6726 18.6806 25.349 18.0729 25.349 17.326C25.349 16.5791 24.6726 15.9714 23.8412 15.9714ZM23.8412 17.8994H23.2031V16.7527H23.8412C24.1932 16.7527 24.4794 17.0099 24.4794 17.3261C24.4794 17.6423 24.1932 17.8994 23.8412 17.8994Z" fill="#71279F"/>
<path d="M24.9136 19.2185C24.6735 19.2185 24.479 19.3934 24.479 19.6091C24.479 19.8248 24.6738 19.9998 24.914 19.9998C25.1541 19.9998 25.3487 19.8248 25.3487 19.6091C25.3487 19.3934 25.1541 19.2185 24.914 19.2185H24.9136Z" fill="#71279F"/>
<defs>
<filter id="filter0_d" x="0" y="0" width="45.3661" height="45" filterUnits="userSpaceOnUse" color-interpolation-filters="sRGB">
<feFlood flood-opacity="0" result="BackgroundImageFix"/>
<feColorMatrix in="SourceAlpha" type="matrix" values="0 0 0 0 0 0 0 0 0 0 0 0 0 0 0 0 0 0 127 0"/>
<feOffset dx="2" dy="2"/>
<feGaussianBlur stdDeviation="5"/>
<feColorMatrix type="matrix" values="0 0 0 0 0 0 0 0 0 0 0 0 0 0 0 0 0 0 0.25 0"/>
<feBlend mode="normal" in2="BackgroundImageFix" result="effect1_dropShadow"/>
<feBlend mode="normal" in="SourceGraphic" in2="effect1_dropShadow" result="shape"/>
</filter>
</defs>
</svg>
