<svg width="46" height="45" viewBox="0 0 46 45" fill="none" xmlns="http://www.w3.org/2000/svg">
<g filter="url(#filter0_d)">
<rect x="8" y="8" width="25.3661" height="25" rx="5" fill="#323761"/>
</g>
<path d="M29.3715 23.7022L24.8304 21.9135L24.5323 19.7922C24.5127 19.6531 24.4031 19.5451 24.2657 19.5296L21.7292 19.2431L22.5804 16.6477C22.6058 16.5702 22.5998 16.4856 22.5639 16.4125L21.6774 14.6104L24.043 11.3636C24.1002 11.285 24.1173 11.1836 24.0893 11.0902C24.0611 10.9967 23.9911 10.9224 23.9004 10.8898C22.8634 10.5174 21.7789 10.3286 20.6768 10.3286C18.092 10.3286 15.662 11.3517 13.8343 13.2094C12.0066 15.0671 11 17.5371 11 20.1643C11 22.7915 12.0066 25.2615 13.8343 27.1192C15.6617 28.9766 18.0913 29.9997 20.6756 30C20.676 30 20.6764 30.0001 20.6768 30.0001C20.6772 30.0001 20.6776 30 20.6779 30C23.4941 29.9997 26.1162 28.7561 27.9231 26.6819C27.9931 26.6464 28.0491 26.5836 28.0752 26.5026C28.6643 25.7927 29.1603 24.9912 29.5395 24.1133C29.5727 24.0363 29.5736 23.9489 29.5419 23.8713C29.5101 23.7937 29.4486 23.7326 29.3715 23.7022ZM27.6607 26.0462L24.6426 25.1259C24.4824 25.0771 24.3134 25.1695 24.2653 25.3324C24.2172 25.4954 24.3082 25.6671 24.4684 25.716L25.3527 25.9856L24.42 26.4596C24.2703 26.5357 24.2096 26.7207 24.2845 26.8729C24.3376 26.9808 24.4446 27.0432 24.5558 27.0432C24.6013 27.0432 24.6475 27.0327 24.691 27.0106L26.1997 26.2439L27.2151 26.5535C25.6291 28.2292 23.4506 29.2621 21.1006 29.3736L21.2874 28.8037C21.3404 28.6423 21.2545 28.4679 21.0958 28.4141C20.937 28.3603 20.7654 28.4476 20.7124 28.609L20.4592 29.3813C18.1177 29.3256 15.9246 28.3727 14.2627 26.6836C12.5496 24.9422 11.6061 22.627 11.6061 20.1643C11.6061 17.961 12.3618 15.8761 13.7478 14.2142L14.6443 15.1255C14.7034 15.1856 14.781 15.2157 14.8585 15.2157C14.9361 15.2157 15.0137 15.1856 15.0728 15.1255C15.1912 15.0052 15.1912 14.8102 15.0728 14.6899L14.1552 13.7571C14.1909 13.7196 14.2264 13.682 14.2628 13.645C15.6684 12.2163 17.4541 11.3148 19.3881 11.0369L19.1049 12.764L17.9091 13.6756C17.7752 13.7777 17.7481 13.9707 17.8485 14.1068C17.908 14.1875 17.999 14.23 18.0912 14.23C18.1544 14.23 18.2182 14.21 18.2727 14.1684L19.5657 13.1828C19.628 13.1353 19.6699 13.0652 19.6827 12.987L20.006 11.0158C20.0086 11.0001 20.0095 10.9846 20.0097 10.9691C20.2306 10.9529 20.4531 10.9446 20.6768 10.9446C21.5716 10.9446 22.4543 11.0774 23.3061 11.3399L21.0797 14.3958C21.0118 14.4891 21.0012 14.6132 21.0522 14.7169L21.9657 16.574L21.0357 19.4099C21.0068 19.4981 21.0186 19.5949 21.068 19.6733C21.1173 19.7516 21.1988 19.8031 21.2897 19.8134L23.9655 20.1156L24.2555 22.1791C24.271 22.2894 24.3438 22.3825 24.446 22.4228L28.8521 24.1583C28.5278 24.8436 28.126 25.4758 27.6607 26.0462Z" fill="#71279F"/>
<path d="M25.2222 16.2217V17.5358C25.2222 17.6468 25.2809 17.7492 25.3759 17.8038C25.4222 17.8305 25.4738 17.8438 25.5252 17.8438C25.5792 17.8438 25.6332 17.8292 25.6811 17.7999L30.5296 14.8431C30.6066 14.7961 30.6591 14.7169 30.673 14.6267C30.6869 14.5365 30.6608 14.4448 30.6017 14.3761L28.3391 11.7477C28.2757 11.6741 28.1815 11.6355 28.0857 11.6436C27.9898 11.6518 27.9034 11.7058 27.853 11.7891L25.2671 16.0602C25.2377 16.1088 25.2222 16.1646 25.2222 16.2217ZM25.8282 16.3088L28.1537 12.4679L29.9069 14.5044L25.8282 16.9918V16.3088Z" fill="#71279F"/>
<path d="M30.9631 18.703C30.9158 18.6145 30.8289 18.5552 30.7304 18.5441L27.8213 18.2155C27.7633 18.2089 27.7045 18.2196 27.6523 18.2462L26.3594 18.9032C26.2567 18.9554 26.1919 19.0621 26.1919 19.1787C26.1919 19.2954 26.2567 19.4021 26.3594 19.4542L29.5917 21.0969C29.6353 21.1191 29.6815 21.1295 29.727 21.1295C29.8382 21.1295 29.9452 21.0671 29.9983 20.9592L30.968 18.9879C31.0123 18.8979 31.0105 18.7915 30.9631 18.703ZM29.5917 20.4082L27.1725 19.1787L27.8434 18.8378L30.2316 19.1075L29.5917 20.4082Z" fill="#71279F"/>
<path d="M23.9292 13.5934V14.9076C23.9292 15.0415 24.0143 15.16 24.1397 15.2009C24.1702 15.2108 24.2014 15.2156 24.2322 15.2156C24.3282 15.2156 24.4208 15.1691 24.4788 15.0866L26.095 12.7868C26.1602 12.694 26.1696 12.5721 26.1194 12.4701L25.4729 11.1559C25.4202 11.0486 25.3102 10.9817 25.193 10.9858C25.0751 10.9893 24.9699 11.0621 24.9234 11.1723L23.9537 13.4721C23.9375 13.5104 23.9292 13.5517 23.9292 13.5934ZM24.5353 13.6566L25.223 12.0254L25.4957 12.5797L24.5353 13.9465V13.6566Z" fill="#71279F"/>
<path d="M24.447 16.661C24.3286 16.5407 24.1367 16.5407 24.0184 16.661L23.372 17.3181C23.2536 17.4384 23.2536 17.6334 23.372 17.7537C23.4311 17.8138 23.5087 17.8439 23.5862 17.8439C23.6638 17.8439 23.7413 17.8138 23.8005 17.7537L24.447 17.0966C24.5653 16.9763 24.5653 16.7813 24.447 16.661Z" fill="#71279F"/>
<path d="M24.5555 19.158H25.2019C25.3693 19.158 25.505 19.0201 25.505 18.85C25.505 18.6799 25.3693 18.542 25.2019 18.542H24.5555C24.3881 18.542 24.2524 18.6799 24.2524 18.85C24.2524 19.0201 24.3881 19.158 24.5555 19.158Z" fill="#71279F"/>
<path d="M28.0154 22.099C28.0472 22.1097 28.0795 22.1149 28.1113 22.1149C28.2381 22.1149 28.3564 22.0332 28.3987 21.9042C28.4516 21.7428 28.3658 21.5684 28.207 21.5146L27.2373 21.1861C27.0786 21.1323 26.9069 21.2195 26.854 21.3809C26.8011 21.5423 26.8869 21.7167 27.0457 21.7705L28.0154 22.099Z" fill="#71279F"/>
<path d="M29.6316 16.5867L28.6619 16.9153C28.5031 16.9691 28.4173 17.1435 28.4702 17.3049C28.5126 17.4339 28.6308 17.5155 28.7576 17.5155C28.7894 17.5155 28.8217 17.5104 28.8535 17.4996L29.8232 17.1711C29.982 17.1173 30.0678 16.9429 30.0149 16.7815C29.962 16.6201 29.7904 16.5329 29.6316 16.5867Z" fill="#71279F"/>
<path d="M26.8182 11.2731C26.8957 11.2731 26.9733 11.243 27.0324 11.1829L27.6789 10.5258C27.7972 10.4055 27.7972 10.2105 27.6789 10.0902C27.5605 9.96993 27.3687 9.96993 27.2504 10.0902L26.6039 10.7473C26.4856 10.8676 26.4856 11.0626 26.6039 11.1829C26.663 11.243 26.7406 11.2731 26.8182 11.2731Z" fill="#71279F"/>
<path d="M29.9416 22.5748C29.8233 22.4545 29.6314 22.4545 29.5131 22.5748C29.3947 22.6951 29.3947 22.8902 29.5131 23.0104L29.8363 23.3389C29.8955 23.3991 29.973 23.4292 30.0506 23.4292C30.1281 23.4292 30.2057 23.3991 30.2648 23.3389C30.3832 23.2187 30.3832 23.0236 30.2648 22.9034L29.9416 22.5748Z" fill="#71279F"/>
<path d="M19.0278 21.2383C19.028 21.2376 19.0281 21.237 19.0283 21.2365L19.0289 21.2345C19.0295 21.2323 19.0298 21.23 19.0304 21.2278C19.0323 21.2206 19.0341 21.2133 19.0354 21.206C19.0363 21.2014 19.0367 21.1969 19.0373 21.1923C19.0381 21.1871 19.0389 21.1819 19.0393 21.1767C19.0398 21.171 19.0399 21.1653 19.0401 21.1596C19.0403 21.1554 19.0405 21.1513 19.0405 21.1471C19.0404 21.1411 19.04 21.1352 19.0396 21.1293C19.0394 21.1252 19.0392 21.1212 19.0388 21.1172C19.0382 21.1117 19.0373 21.1061 19.0364 21.1006C19.0357 21.0962 19.035 21.0917 19.0341 21.0873C19.0332 21.0825 19.0319 21.0778 19.0307 21.073C19.0294 21.068 19.0282 21.0629 19.0266 21.0579C19.0254 21.054 19.024 21.0501 19.0226 21.0461C19.0206 21.0406 19.0186 21.035 19.0163 21.0295C19.0149 21.0261 19.0133 21.0228 19.0118 21.0195C19.0091 21.0138 19.0065 21.0082 19.0036 21.0026C19.0017 20.9992 18.9997 20.9959 18.9977 20.9926C18.9947 20.9875 18.9918 20.9824 18.9885 20.9774C18.9857 20.9732 18.9826 20.9692 18.9796 20.9651C18.9767 20.9613 18.9741 20.9574 18.9711 20.9537C18.9664 20.948 18.9613 20.9425 18.9563 20.9371C18.9547 20.9354 18.9534 20.9337 18.9518 20.9321L18.9504 20.9306C18.9499 20.9302 18.9495 20.9297 18.949 20.9292L17.0124 18.9608C16.8941 18.8405 16.7022 18.8405 16.5839 18.9608C16.4655 19.0811 16.4655 19.2761 16.5839 19.3964L18.3972 21.2395L17.9083 22.9786L17.0282 21.935C16.9193 21.8058 16.728 21.7909 16.6009 21.9016C16.4739 22.0123 16.4592 22.2067 16.5681 22.3359L18.5075 24.6357C18.5674 24.7067 18.6523 24.7432 18.7377 24.7432C18.8075 24.7432 18.8776 24.7189 18.9348 24.669C19.0618 24.5583 19.0765 24.3639 18.9676 24.2348L18.3807 23.5388C18.3812 23.5372 18.382 23.5358 18.3824 23.5342L19.0278 21.2383Z" fill="#71279F"/>
<path d="M14.4998 22.038C14.4997 22.0377 14.4995 22.0374 14.4994 22.037C14.4963 22.0277 14.4928 22.0186 14.4889 22.0097C14.487 22.0054 14.4848 22.0014 14.4828 21.9973C14.4804 21.9924 14.4782 21.9875 14.4755 21.9828C14.4729 21.9782 14.47 21.9739 14.4673 21.9695C14.4647 21.9654 14.4623 21.9613 14.4596 21.9574C14.4566 21.9531 14.4533 21.9491 14.4501 21.9449C14.4472 21.9411 14.4443 21.9373 14.4412 21.9336C14.438 21.9298 14.4345 21.9263 14.431 21.9227C14.4276 21.919 14.4243 21.9153 14.4207 21.9118C14.417 21.9083 14.4131 21.9051 14.4094 21.9018C14.4057 21.8986 14.4021 21.8953 14.3982 21.8922C14.3934 21.8884 14.3884 21.885 14.3834 21.8815C14.3803 21.8794 14.3773 21.877 14.374 21.8749C14.3654 21.8694 14.3565 21.8643 14.3473 21.8597L13.7013 21.5314C13.5517 21.4553 13.3696 21.5169 13.2948 21.6691C13.2199 21.8213 13.2806 22.0063 13.4303 22.0823L13.9645 22.3538L14.248 23.2184C14.2904 23.3475 14.4086 23.4291 14.5355 23.4291C14.5672 23.4291 14.5995 23.424 14.6313 23.4132C14.7901 23.3594 14.8759 23.185 14.823 23.0236L14.4998 22.038Z" fill="#71279F"/>
<defs>
<filter id="filter0_d" x="0" y="0" width="45.3661" height="45" filterUnits="userSpaceOnUse" color-interpolation-filters="sRGB">
<feFlood flood-opacity="0" result="BackgroundImageFix"/>
<feColorMatrix in="SourceAlpha" type="matrix" values="0 0 0 0 0 0 0 0 0 0 0 0 0 0 0 0 0 0 127 0"/>
<feOffset dx="2" dy="2"/>
<feGaussianBlur stdDeviation="5"/>
<feColorMatrix type="matrix" values="0 0 0 0 0 0 0 0 0 0 0 0 0 0 0 0 0 0 0.25 0"/>
<feBlend mode="normal" in2="BackgroundImageFix" result="effect1_dropShadow"/>
<feBlend mode="normal" in="SourceGraphic" in2="effect1_dropShadow" result="shape"/>
</filter>
</defs>
</svg>
