<svg width="54" height="58" viewBox="0 0 54 58" fill="none" xmlns="http://www.w3.org/2000/svg">
<path d="M18.0638 55.9335C31.1547 61.4698 48.4487 55.4141 53.9536 43.3448C45.1215 49.7628 35.8133 50.8854 26.3579 45.0533C18.0358 39.9201 14.0947 32.003 15.3135 22.3791C16.8644 10.1318 24.6114 3.34201 36.6902 1.14481C25.4965 -2.39167 8.42402 1.93584 1.88153 18.7532C-3.17425 31.7512 1.87296 49.0854 18.0638 55.9335Z" fill="#282D56"/>
<path d="M35.0596 12.3342L38.8232 15.9782L37.9557 21.298C37.8227 22.114 38.331 22.5113 39.0909 22.1853L43.7522 20.1857L48.4134 22.1853C49.1734 22.5113 49.6534 22.1192 49.486 21.3093L48.3819 15.9779L52.4144 12.3011C53.0253 11.7442 52.8613 11.1721 52.0478 11.0236L46.9566 10.0945L44.4671 5.511C44.0725 4.78442 43.4327 4.78442 43.038 5.511L40.5486 10.0945L35.4568 11.024C34.6434 11.1723 34.4655 11.7587 35.0596 12.3342Z" fill="#282D56"/>
<path d="M43.2623 34.2328L39.5984 33.5646L37.8066 30.2659C37.5225 29.7431 37.0623 29.7431 36.7781 30.2659L34.9864 33.5646L31.3229 34.2328C30.7375 34.3395 30.6096 34.7617 31.0371 35.1758L33.7455 37.7982L33.1212 41.6266C33.0254 42.2139 33.3911 42.4997 33.9382 42.2652L37.2924 40.8265L40.6467 42.2652C41.1937 42.4997 41.5392 42.2178 41.4182 41.6348L40.6238 37.7982L43.5257 35.1524C43.966 34.751 43.8477 34.3395 43.2623 34.2328Z" fill="#282D56"/>
</svg>
