<svg width="57" height="59" viewBox="0 0 57 59" fill="none" xmlns="http://www.w3.org/2000/svg">
<path d="M34.5117 21.8945C33.8972 21.8945 33.3984 22.4108 33.3984 23.0469C33.3984 23.683 33.8972 24.1992 34.5117 24.1992C35.1262 24.1992 35.625 23.683 35.625 23.0469C35.625 22.4108 35.1262 21.8945 34.5117 21.8945Z" fill="white"/>
<path d="M55.6953 51.1317L40.8353 35.7502C43.2561 31.9758 44.5312 27.605 44.5312 23.0469C44.5312 10.3388 34.5429 0 22.2656 0C9.98836 0 0 10.3388 0 23.0469C0 35.7549 9.98836 46.0938 22.2656 46.0938C26.6693 46.0938 30.892 44.7737 34.5383 42.2682L38.6458 46.5198C38.6463 46.5203 38.6469 46.5209 38.6476 46.5216L49.3983 57.6496C50.2397 58.5204 51.3578 59 52.5469 59C53.736 59 54.854 58.5204 55.695 57.6499C56.5365 56.7795 57 55.6221 57 54.3906C57 53.1591 56.5365 52.0017 55.6953 51.1317ZM34.0148 39.8396C34.0148 39.8397 34.0146 39.8398 34.0145 39.8399C30.5782 42.4234 26.5156 43.7891 22.2656 43.7891C11.2161 43.7891 2.22656 34.4841 2.22656 23.0469C2.22656 11.6096 11.2161 2.30469 22.2656 2.30469C33.3152 2.30469 42.3047 11.6096 42.3047 23.0469C42.3047 27.4459 40.9853 31.6511 38.4892 35.2081C37.2405 36.9889 35.7351 38.5472 34.0148 39.8396ZM36.3504 40.8843C37.5027 39.9087 38.5559 38.8184 39.4984 37.6259L42.6569 40.8952C41.6964 42.0686 40.6426 43.1595 39.5089 44.1537L36.3504 40.8843ZM54.1209 56.0199C53.7001 56.4555 53.1411 56.6953 52.5469 56.6953C51.9526 56.6953 51.3936 56.4555 50.9728 56.0199L41.0874 45.7877C42.2148 44.7862 43.268 43.6962 44.2354 42.5292L54.1212 52.7618C54.5418 53.1967 54.7734 53.775 54.7734 54.3906C54.7734 55.0062 54.5418 55.5846 54.1209 56.0199Z" fill="white"/>
<path d="M22.2656 4.60938C12.4437 4.60938 4.45312 12.8803 4.45312 23.0469C4.45312 33.2134 12.4437 41.4844 22.2656 41.4844C32.0875 41.4844 40.0781 33.2134 40.0781 23.0469C40.0781 12.8803 32.0875 4.60938 22.2656 4.60938ZM22.2656 39.1797C13.6715 39.1797 6.67969 31.9425 6.67969 23.0469C6.67969 14.1512 13.6715 6.91406 22.2656 6.91406C30.8597 6.91406 37.8516 14.1512 37.8516 23.0469C37.8516 31.9425 30.8597 39.1797 22.2656 39.1797Z" fill="white"/>
<path d="M34.7416 18.1002C33.783 15.5176 32.1138 13.3095 29.9144 11.7147C27.6627 10.0819 25.0178 9.21875 22.2656 9.21875C21.6509 9.21875 21.1523 9.73477 21.1523 10.3711C21.1523 11.0074 21.6509 11.5234 22.2656 11.5234C26.8411 11.5234 31.0195 14.4986 32.6632 18.9269C32.8333 19.3851 33.2552 19.6662 33.7027 19.6662C33.8354 19.6662 33.9704 19.6415 34.1017 19.5893C34.6756 19.361 34.9622 18.6944 34.7416 18.1002Z" fill="white"/>
</svg>
