<svg width="58" height="58" viewBox="0 0 58 58" fill="none" xmlns="http://www.w3.org/2000/svg">
<path d="M29 45.3125C20.0052 45.3125 12.6875 37.9948 12.6875 29C12.6875 20.0052 20.0052 12.6875 29 12.6875C37.9948 12.6875 45.3125 20.0052 45.3125 29C45.3125 37.9948 37.9948 45.3125 29 45.3125ZM29 16.3125C22.0041 16.3125 16.3125 22.0041 16.3125 29C16.3125 35.9959 22.0041 41.6875 29 41.6875C35.9959 41.6875 41.6875 35.9959 41.6875 29C41.6875 22.0041 35.9959 16.3125 29 16.3125Z" fill="white"/>
<path d="M29 9.0625C27.9989 9.0625 27.1875 8.25095 27.1875 7.25V1.8125C27.1875 0.811547 27.9989 0 29 0C30.0011 0 30.8125 0.811547 30.8125 1.8125V7.25C30.8125 8.25095 30.0011 9.0625 29 9.0625Z" fill="white"/>
<path d="M29 58C27.9989 58 27.1875 57.1885 27.1875 56.1875V50.75C27.1875 49.749 27.9989 48.9375 29 48.9375C30.0011 48.9375 30.8125 49.749 30.8125 50.75V56.1875C30.8125 57.1885 30.0011 58 29 58Z" fill="white"/>
<path d="M56.1875 30.8125H50.75C49.7489 30.8125 48.9375 30.001 48.9375 29C48.9375 27.999 49.7489 27.1875 50.75 27.1875H56.1875C57.1886 27.1875 58 27.999 58 29C58 30.001 57.1886 30.8125 56.1875 30.8125Z" fill="white"/>
<path d="M7.25 30.8125H1.8125C0.811434 30.8125 0 30.001 0 29C0 27.999 0.811434 27.1875 1.8125 27.1875H7.25C8.25107 27.1875 9.0625 27.999 9.0625 29C9.0625 30.001 8.25107 30.8125 7.25 30.8125Z" fill="white"/>
<path d="M44.3797 15.4328C42.7795 15.4328 41.953 13.4837 43.0981 12.3386L46.943 8.49377C47.6509 7.78599 48.7985 7.78587 49.5062 8.49377C50.2141 9.20155 50.2141 10.3492 49.5062 11.057L45.6613 14.9019C45.3073 15.2559 44.8434 15.4328 44.3797 15.4328Z" fill="white"/>
<path d="M9.77542 50.037C8.17521 50.037 7.34871 48.0879 8.49387 46.9429L12.3388 43.098C13.0468 42.3902 14.1944 42.3902 14.902 43.098C15.6099 43.8058 15.6099 44.9534 14.902 45.6612L11.057 49.5062C10.7031 49.86 10.2393 50.037 9.77542 50.037Z" fill="white"/>
<path d="M48.2247 50.0372C47.7608 50.0372 47.2971 49.8603 46.9432 49.5064L43.0983 45.6615C42.3904 44.9536 42.3904 43.8061 43.0983 43.0983C43.8061 42.3904 44.9537 42.3904 45.6615 43.0983L49.5064 46.9432C50.6514 48.088 49.8249 50.0372 48.2247 50.0372Z" fill="white"/>
<path d="M13.6204 15.433C13.1565 15.433 12.6927 15.256 12.3388 14.9021L8.49381 11.0573C7.78592 10.3494 7.78592 9.20184 8.49381 8.49406C9.20159 7.78616 10.3492 7.78616 11.057 8.49406L14.9019 12.3389C16.0471 13.4839 15.2206 15.433 13.6204 15.433Z" fill="white"/>
</svg>
