<svg width="46" height="45" viewBox="0 0 46 45" fill="none" xmlns="http://www.w3.org/2000/svg">
<g filter="url(#filter0_d)">
<rect x="8" y="8" width="25.3661" height="25" rx="5" fill="#C8B7CE"/>
</g>
<path d="M21.9995 23.9999H19.9995V26H21.9995V23.9999Z" fill="#30279F"/>
<path d="M21 10C15.4772 10 11 14.4772 11 20C11 25.5228 15.4772 30 21 30C26.5228 30 31 25.5228 31 20C31 14.4772 26.5229 10 21 10ZM21 28.19C16.4768 28.19 12.81 24.5232 12.81 20C12.81 15.4768 16.4768 11.81 21 11.81C25.5209 11.8155 29.1845 15.479 29.19 20C29.19 24.5233 25.5233 28.19 21 28.19Z" fill="#30279F"/>
<path d="M24.8901 17.0501C24.3756 14.9017 22.217 13.5771 20.0686 14.0915C18.2623 14.524 16.9914 16.1428 17 18.0001H19.0001C19.094 16.8956 20.0655 16.0762 21.17 16.1701C22.2746 16.264 23.0939 17.2355 23.0001 18.3401C22.7958 19.334 21.9041 20.0355 20.8901 20.0001C20.3985 20.0001 20 20.3986 20 20.8901V23.0001H22.0001V21.8601C24.1151 21.3147 25.4016 19.1736 24.8901 17.0501Z" fill="#30279F"/>
<defs>
<filter id="filter0_d" x="0" y="0" width="45.3661" height="45" filterUnits="userSpaceOnUse" color-interpolation-filters="sRGB">
<feFlood flood-opacity="0" result="BackgroundImageFix"/>
<feColorMatrix in="SourceAlpha" type="matrix" values="0 0 0 0 0 0 0 0 0 0 0 0 0 0 0 0 0 0 127 0"/>
<feOffset dx="2" dy="2"/>
<feGaussianBlur stdDeviation="5"/>
<feColorMatrix type="matrix" values="0 0 0 0 0 0 0 0 0 0 0 0 0 0 0 0 0 0 0.25 0"/>
<feBlend mode="normal" in2="BackgroundImageFix" result="effect1_dropShadow"/>
<feBlend mode="normal" in="SourceGraphic" in2="effect1_dropShadow" result="shape"/>
</filter>
</defs>
</svg>
